<svg width="77" height="77" viewBox="0 0 77 77" fill="none" xmlns="http://www.w3.org/2000/svg">
<path d="M64.679 21.9447C55.439 7.69972 36.574 3.46473 21.944 12.3197C7.69903 21.1747 3.07903 40.4247 12.319 54.6697L13.089 55.8247L10.009 67.3747L21.559 64.2947L22.714 65.0647C27.719 67.7597 33.109 69.2997 38.499 69.2997C44.274 69.2997 50.049 67.7597 55.054 64.6797C69.299 55.4397 73.534 36.5747 64.679 21.9447V21.9447ZM56.594 51.5897C55.054 53.8997 53.129 55.4397 50.434 55.8247C48.894 55.8247 46.969 56.5947 39.269 53.5147C32.724 50.4347 27.334 45.4297 23.484 39.6547C21.174 36.9597 20.019 33.4947 19.634 30.0297C19.634 26.9497 20.789 24.2547 22.714 22.3297C23.484 21.5597 24.254 21.1747 25.024 21.1747H26.949C27.719 21.1747 28.489 21.1747 28.874 22.7147C29.644 24.6397 31.569 29.2597 31.569 29.6447C31.954 30.0297 31.954 30.7997 31.569 31.1847C31.954 31.9547 31.569 32.7247 31.184 33.1097C30.799 33.4947 30.414 34.2647 30.029 34.6497C29.259 35.0347 28.874 35.8047 29.259 36.5747C30.799 38.8847 32.724 41.1947 34.649 43.1197C36.959 45.0447 39.269 46.5847 41.964 47.7397C42.734 48.1247 43.504 48.1247 43.889 47.3547C44.274 46.5847 46.199 44.6597 46.969 43.8897C47.739 43.1197 48.124 43.1197 48.894 43.5047L55.054 46.5847C55.824 46.9697 56.594 47.3547 56.979 47.7397C57.364 48.8947 57.364 50.4347 56.594 51.5897V51.5897Z" fill="white"/>
</svg>
