<svg width="65" height="65" viewBox="0 0 65 65" fill="none" xmlns="http://www.w3.org/2000/svg">
<path d="M32.4998 1.30078C15.2683 1.30078 1.2998 15.2693 1.2998 32.5008C1.2998 49.7323 15.2683 63.7008 32.4998 63.7008C49.7313 63.7008 63.6998 49.7323 63.6998 32.5008C63.6998 15.2693 49.7313 1.30078 32.4998 1.30078ZM45.1911 26.8588C45.2041 27.1253 45.2073 27.3918 45.2073 27.6518C45.2073 35.7768 39.0291 45.14 27.7256 45.14C24.3855 45.1456 21.1149 44.1863 18.3071 42.3775C18.7848 42.436 19.2756 42.4588 19.7728 42.4588C22.6523 42.4588 25.3011 41.4805 27.4038 39.8295C26.1224 39.8044 24.8807 39.38 23.8519 38.6157C22.8231 37.8514 22.0584 36.7851 21.6643 35.5655C22.5846 35.7405 23.5326 35.7038 24.4366 35.4583C23.0457 35.177 21.7949 34.4234 20.8964 33.3252C19.9978 32.227 19.5067 30.8518 19.5063 29.4328V29.358C20.3351 29.8163 21.2841 30.0958 22.2916 30.1283C20.9877 29.2603 20.0646 27.927 19.7112 26.401C19.3578 24.875 19.6007 23.2716 20.3903 21.9188C21.9339 23.8168 23.8589 25.3695 26.0407 26.4763C28.2224 27.5831 30.6123 28.2194 33.0556 28.344C32.7449 27.0255 32.8786 25.6413 33.4358 24.4067C33.9931 23.172 34.9426 22.156 36.1368 21.5166C37.331 20.8773 38.703 20.6504 40.0395 20.8712C41.3759 21.092 42.602 21.7482 43.5271 22.7378C44.9024 22.4657 46.2212 21.9612 47.4271 21.246C46.9687 22.67 46.009 23.8791 44.7263 24.6488C45.9446 24.5021 47.1341 24.1745 48.2558 23.677C47.4319 24.9117 46.394 25.9892 45.1911 26.8588Z" fill="white"/>
</svg>
