<svg width="76" height="76" viewBox="0 0 76 76" fill="none" xmlns="http://www.w3.org/2000/svg">
<g filter="url(#filter0_d_621_2740)">
<path d="M47.5 38C47.5 39.8789 46.9428 41.7156 45.899 43.2779C44.8551 44.8402 43.3714 46.0578 41.6355 46.7769C39.8996 47.4959 37.9895 47.684 36.1466 47.3175C34.3038 46.9509 32.6111 46.0461 31.2825 44.7175C29.9539 43.3889 29.0491 41.6962 28.6825 39.8534C28.316 38.0105 28.5041 36.1004 29.2231 34.3645C29.9422 32.6286 31.1598 31.1449 32.7221 30.101C34.2844 29.0572 36.1211 28.5 38 28.5C40.5171 28.5078 42.929 29.5112 44.7089 31.2911C46.4888 33.071 47.4922 35.4829 47.5 38ZM67.6875 24.9375V51.0625C67.6875 55.4717 65.9359 59.7004 62.8181 62.8181C59.7004 65.9359 55.4717 67.6875 51.0625 67.6875H24.9375C20.5283 67.6875 16.2996 65.9359 13.1818 62.8181C10.0641 59.7004 8.3125 55.4717 8.3125 51.0625V24.9375C8.3125 20.5283 10.0641 16.2996 13.1818 13.1818C16.2996 10.0641 20.5283 8.3125 24.9375 8.3125H51.0625C55.4717 8.3125 59.7004 10.0641 62.8181 13.1818C65.9359 16.2996 67.6875 20.5283 67.6875 24.9375ZM52.25 38C52.25 35.1816 51.4142 32.4265 49.8484 30.0831C48.2826 27.7397 46.0571 25.9133 43.4532 24.8347C40.8494 23.7562 37.9842 23.474 35.22 24.0238C32.4557 24.5737 29.9166 25.9308 27.9237 27.9237C25.9308 29.9166 24.5737 32.4557 24.0238 35.22C23.474 37.9842 23.7562 40.8494 24.8347 43.4532C25.9133 46.0571 27.7397 48.2826 30.0831 49.8484C32.4265 51.4142 35.1816 52.25 38 52.25C41.7793 52.25 45.4039 50.7487 48.0763 48.0763C50.7487 45.4039 52.25 41.7793 52.25 38ZM57 22.5625C57 21.8579 56.7911 21.1691 56.3996 20.5833C56.0082 19.9974 55.4518 19.5408 54.8008 19.2712C54.1498 19.0015 53.4335 18.931 52.7425 19.0685C52.0514 19.2059 51.4167 19.5452 50.9184 20.0434C50.4202 20.5417 50.0809 21.1764 49.9435 21.8675C49.806 22.5585 49.8765 23.2748 50.1462 23.9258C50.4158 24.5768 50.8724 25.1332 51.4583 25.5246C52.0441 25.9161 52.7329 26.125 53.4375 26.125C54.3823 26.125 55.2885 25.7497 55.9566 25.0816C56.6247 24.4135 57 23.5073 57 22.5625Z" fill="white"/>
</g>
<defs>
<filter id="filter0_d_621_2740" x="-4" y="0" width="84" height="84" filterUnits="userSpaceOnUse" color-interpolation-filters="sRGB">
<feFlood flood-opacity="0" result="BackgroundImageFix"/>
<feColorMatrix in="SourceAlpha" type="matrix" values="0 0 0 0 0 0 0 0 0 0 0 0 0 0 0 0 0 0 127 0" result="hardAlpha"/>
<feOffset dy="4"/>
<feGaussianBlur stdDeviation="2"/>
<feComposite in2="hardAlpha" operator="out"/>
<feColorMatrix type="matrix" values="0 0 0 0 0 0 0 0 0 0 0 0 0 0 0 0 0 0 0.25 0"/>
<feBlend mode="normal" in2="BackgroundImageFix" result="effect1_dropShadow_621_2740"/>
<feBlend mode="normal" in="SourceGraphic" in2="effect1_dropShadow_621_2740" result="shape"/>
</filter>
</defs>
</svg>
